<?xml version="1.0" encoding="utf-8"?>
<!-- Generator: Adobe Illustrator 21.1.0, SVG Export Plug-In . SVG Version: 6.00 Build 0)  -->
<svg version="1.1" id="Layer_1" xmlns="http://www.w3.org/2000/svg" xmlns:xlink="http://www.w3.org/1999/xlink" x="0px" y="0px"
	 viewBox="0 0 200 184.16" enable-background="new 0 0 200 184.16" xml:space="preserve">
<path fill="#0095A8" d="M68.231,30.327l0.963,0.557l0.48-1.003c2.165-4.529,7.729-7.769,16.538-9.631
	c7.685-1.624,14.921-1.569,15.224-1.572l2.189,0.018l-0.753,2.055c-0.159,0.435-3.964,10.733-9.364,18.982l-0.795,1.215l1.41,0.346
	c0.189,0.047,10.648,2.551,24.498,2.551c11.416,0,25.137-1.703,37.298-7.886l0.839-0.427l-0.351-0.874
	c-2.805-6.968-9.737-13.46-20.045-18.775h-0.001c-14.728-7.591-34.4-11.771-55.393-11.771c-14.106,0-27.88,1.921-39.835,5.555
	l-1.864,0.567l1.519,1.219C49.318,18.297,59.321,25.176,68.231,30.327z"/>
<path fill="#0095A8" d="M43.688,144.994l-0.763,0.659l0.643,0.775c10.468,12.634,22.864,23.576,36.845,32.524l0.554,0.354
	l0.554-0.355c16.89-10.809,31.363-24.421,43.019-40.458c1.847-2.542,3.687-5.243,5.467-8.029l0.694-1.086l-1.213-0.436
	C88.19,114.118,58.004,132.637,43.688,144.994z"/>
<path fill="#FFA200" d="M188.447,29.518l-1.785-4.136l-0.187,4.501c-0.127,3.055-0.367,6.079-0.714,8.99
	c-1.792,15.057-6.219,26.337-13.159,33.528c-6.032,6.251-13.877,9.226-23.271,8.822c-0.952-0.064-9.353-0.788-11.247-6.271
	c-1.457-4.214,1.406-9.483,8.753-16.11c9.307-8.394,15.282-16.207,18.266-23.883l1.416-3.641l-3.025,2.472
	c-6.804,5.562-18.86,12.356-37.652,13.132c-6.599,0.268-23.328,0.448-36.131-3.678l-2.078-0.67l1.326-1.734
	c4.231-5.538,7.811-13.361,9.568-17.531l0.643-1.526l-1.653,0.1c-5.844,0.354-23.189,1.406-25.986,13.83l-2.015-1.114
	c-15.573-8.61-28.39-18.81-33.177-22.796l-0.457-0.381l-0.558,0.207c-3.508,1.298-6.787,2.73-9.748,4.256
	c-13.84,7.135-21.463,16.3-21.463,25.808c0,0.228,0.113,23.103,9.867,51.417c5.736,16.65,13.638,31.952,23.486,45.481
	c0.835,1.147,1.745,2.354,2.863,3.798l0.663,0.856l0.821-0.706c17.757-15.277,55.164-36.702,106.178-8.553l0.483,0.266l0.489-0.255
	c5.617-2.93,34.134-19.045,43.894-48.605C198.522,68.234,197.038,49.436,188.447,29.518z"/>
<circle fill="#1F1F1F" cx="113.832" cy="74.693" r="5.619"/>
<path fill="#1F1F1F" d="M185.298,21.712c-1.757,8.569-3.513,36.397-15.654,47.833c-5.179,5.366-11.962,7.914-20.098,7.571
	c-2.04-0.14-6.484-0.559-7.574-3.508c-0.384-1.11-0.409-4.47,7.621-11.712c0,0,22.418-17.262,17.92-35.129
	c-2.391,2.179-4.928,4.074-7.563,5.728c-3.331-7.659-10.772-14.631-21.704-20.267C122.947,4.343,102.606,0,80.968,0
	C59.33,0,38.99,4.343,23.691,12.229C8.413,20.105,0,30.568,0,41.692c0,0.235,0.115,23.8,10.092,52.757
	c5.868,17.037,13.96,32.703,24.048,46.562c12.275,16.862,27.571,31.093,45.463,42.295l1.365,0.854l1.365-0.854
	c17.929-11.228,33.25-25.491,45.536-42.396c2.123-2.92,4.186-5.982,6.158-9.109c4.267,1.772,8.645,3.896,13.135,6.43l1.151,0.65
	l1.198-0.557c1.456-0.678,35.789-16.997,47.239-51.598C203.77,65.507,199.18,34.458,185.298,21.712z M135.89,16.798
	c10.121,5.219,16.848,11.504,19.563,18.245c-26.884,13.67-61.084,5.254-61.084,5.254c5.462-8.345,9.289-18.701,9.468-19.191
	l1.255-3.425l-3.648-0.03c-0.313-0.003-7.702-0.043-15.445,1.594c-9.158,1.936-14.94,5.356-17.253,10.194
	c-9.919-5.735-19.809-12.765-27.313-18.785c11.811-3.591,25.364-5.511,39.535-5.511C101.802,5.141,121.306,9.282,135.89,16.798z
	 M123.709,137.888c-11.584,15.938-25.959,29.456-42.741,40.197c-13.937-8.919-26.209-19.762-36.608-32.313
	c14.376-12.409,44.108-30.461,84.781-15.862C127.393,132.646,125.574,135.323,123.709,137.888z M191.881,85.069
	c-9.592,29.05-37.389,44.883-43.393,48.015c-51.928-28.655-90.002-6.247-107.345,8.674c-0.964-1.244-1.917-2.498-2.845-3.774
	c-9.788-13.445-17.643-28.657-23.345-45.211C5.278,64.692,5.141,41.918,5.141,41.692c0-9.103,7.424-17.944,20.905-24.894
	c3.009-1.55,6.238-2.949,9.634-4.206c8.144,6.78,20.398,15.752,33.337,22.906l3.278,1.813c1.478-11.925,16.557-13.873,25.283-14.402
	c-1.852,4.394-5.332,11.933-9.437,17.306l-2.209,2.891l3.463,1.117c12.994,4.186,29.847,3.997,36.488,3.727
	c19.412-0.801,31.493-7.83,38.261-13.363c-2.078,5.345-6.463,13.09-17.996,23.492c-7.687,6.934-10.642,12.563-9.036,17.21
	c2.111,6.105,11.069,6.888,12.15,6.961c9.72,0.41,17.836-2.664,24.08-9.134c7.099-7.356,11.62-18.836,13.44-34.12
	c0.389-3.264,0.607-6.338,0.72-9.069C195.997,49.619,197.475,68.127,191.881,85.069z"/>
</svg>
